<svg id="Layer_1" data-name="Layer 1" xmlns="http://www.w3.org/2000/svg" viewBox="0 0 496.253 608.729">
  <defs>
    <style>
      .cls-1 {
        fill: #999;
        fill-rule: evenodd;
      }
    </style>
  </defs>
  <title>745ba9f2-0c9c-4921-939e-fd614c60f71f</title>
  <g>
    <path class="cls-1" d="M273.809,52.973C313.806.257,369.41,0,369.41,0s8.269,49.562-31.463,97.306c-42.426,50.98-90.649,42.638-90.649,42.638S238.243,99.85,273.809,52.973Z"/>
    <path class="cls-1" d="M252.385,174.662c20.577,0,58.764-28.284,108.471-28.284,85.562,0,119.222,60.883,119.222,60.883s-65.833,33.659-65.833,115.33c0,92.134,82.009,123.885,82.009,123.885S438.925,607.834,361.492,607.834c-35.566,0-63.215-23.968-100.688-23.968-38.187,0-76.084,24.862-100.765,24.862C89.33,608.729,0,455.665,0,332.629,0,211.576,75.612,148.074,146.533,148.074,192.638,148.074,228.416,174.662,252.385,174.662Z"/>
  </g>
</svg>
